<?xml version="1.0"?>
<svg xmlns="http://www.w3.org/2000/svg" xmlns:xlink="http://www.w3.org/1999/xlink" xmlns:svgjs="http://svgjs.com/svgjs" version="1.1" width="512" height="512" x="0" y="0" viewBox="0 0 482.285 482.285" style="enable-background:new 0 0 512 512" xml:space="preserve" class=""><g>
<g xmlns="http://www.w3.org/2000/svg">
	<g>
		<path d="M384.914,379.798c-0.651-1.05-1.536-1.935-2.586-2.586h0.24l-41.84-26.24v-200c0.002-1.013-0.188-2.018-0.56-2.96    l-56-142.96c-0.865-2.189-2.65-3.887-4.88-4.64c-2.212-0.74-4.638-0.477-6.64,0.72l-96.96,57.04l-27.04,18.56    c-3.264,1.952-4.702,5.932-3.44,9.52l43.6,124.64v129.2l-88.72,51.04c-3.8,2.255-5.052,7.163-2.798,10.962    c0.684,1.152,1.646,2.114,2.798,2.798l125.12,76.32c2.475,1.429,5.525,1.429,8,0l149.12-90.4    C386.084,388.485,387.242,383.554,384.914,379.798z M272.408,19.533l52.4,132.8v222.72l-87.6,54.88v-218.88    c0.007-0.869-0.128-1.734-0.4-2.56l-47.36-139.84L272.408,19.533z M162.328,86.733l13.28-9.12l45.6,134.8v218.24l-16.4-9.44v-212    c-0.01-0.901-0.172-1.793-0.48-2.64L162.328,86.733z M229.208,465.213l-109.44-66.96l69.04-40v67.28    c-0.212,3.212,1.522,6.238,4.4,7.68l32,18.16l1.2,0.48h0.64h1.28h0.8c0.664,0.084,1.336,0.084,2,0h0.72l1.28-0.56l104.08-64.96    c2.344-1.465,3.766-4.036,3.76-6.8v-9.52l22.32,14L229.208,465.213z" fill="#ffffff" data-original="#000000" style="" class=""/>
	</g>
</g>
<g xmlns="http://www.w3.org/2000/svg">
	<g>
		<path d="M314.008,149.053l-37.68-103.12c-1.589-4.123-6.219-6.177-10.341-4.589c-0.266,0.102-0.526,0.219-0.779,0.349l-56.96,32.4    c-3.41,1.948-4.901,6.084-3.52,9.76l39.04,104c0.593,2.379,2.244,4.354,4.48,5.36c2.26,0.79,4.755,0.525,6.8-0.72l55.6-33.84    C313.92,156.668,315.328,152.644,314.008,149.053z M254.568,173.933l-33.2-88.8l42.88-24.56l32,88L254.568,173.933z" fill="#ffffff" data-original="#000000" style="" class=""/>
	</g>
</g>
<g xmlns="http://www.w3.org/2000/svg">
	<g>
		<path d="M314.192,181.062c-2.192-2.612-5.799-3.547-8.984-2.329v0l-50.4,31.04c-3.384,2.841-3.825,7.887-0.984,11.271    c2.192,2.612,5.799,3.547,8.984,2.329l50.4-31.04C316.592,189.492,317.033,184.446,314.192,181.062z" fill="#ffffff" data-original="#000000" style="" class=""/>
	</g>
</g>
<g xmlns="http://www.w3.org/2000/svg">
</g>
<g xmlns="http://www.w3.org/2000/svg">
</g>
<g xmlns="http://www.w3.org/2000/svg">
</g>
<g xmlns="http://www.w3.org/2000/svg">
</g>
<g xmlns="http://www.w3.org/2000/svg">
</g>
<g xmlns="http://www.w3.org/2000/svg">
</g>
<g xmlns="http://www.w3.org/2000/svg">
</g>
<g xmlns="http://www.w3.org/2000/svg">
</g>
<g xmlns="http://www.w3.org/2000/svg">
</g>
<g xmlns="http://www.w3.org/2000/svg">
</g>
<g xmlns="http://www.w3.org/2000/svg">
</g>
<g xmlns="http://www.w3.org/2000/svg">
</g>
<g xmlns="http://www.w3.org/2000/svg">
</g>
<g xmlns="http://www.w3.org/2000/svg">
</g>
<g xmlns="http://www.w3.org/2000/svg">
</g>
</g></svg>
