<svg xmlns="http://www.w3.org/2000/svg" xmlns:xlink="http://www.w3.org/1999/xlink" version="1.1" x="0px" y="0px" fill="#fff" viewBox="0 0 100 125" enable-background="new 0 0 100 100" xml:space="preserve"><path fill-rule="evenodd" clip-rule="evenodd" d="M93,16H71v68h22V16L93,16z M70,14h24c0.553,0,1,0.448,1,1v70c0,0.553-0.447,1-1,1  H70c-0.552,0-1-0.447-1-1V15C69,14.448,69.448,14,70,14z"/><path fill-rule="evenodd" clip-rule="evenodd" d="M6,30h58c0.552,0,1,0.448,1,1v44c0,0.552-0.448,1-1,1H36v8h14c0.552,0,1,0.447,1,1  s-0.448,1-1,1c-10,0-20,0-30,0c-0.552,0-1-0.447-1-1s0.447-1,1-1h14v-8H6c-0.552,0-1-0.448-1-1V31C5,30.448,5.447,30,6,30L6,30z   M63,32H7v42h56V32z"/><path fill-rule="evenodd" clip-rule="evenodd" d="M75,26c-0.553,0-1-0.448-1-1c0-0.553,0.447-1,1-1h14c0.552,0,1,0.447,1,1  c0,0.552-0.448,1-1,1H75z"/><path fill-rule="evenodd" clip-rule="evenodd" d="M87,32c-0.553,0-1-0.448-1-1c0-0.553,0.447-1,1-1h2c0.552,0,1,0.447,1,1  c0,0.552-0.448,1-1,1H87z"/><text x="0" y="115" fill="#000000" font-size="5px" font-weight="bold" font-family="'Helvetica Neue', Helvetica, Arial-Unicode, Arial, Sans-serif">Created by Krisada</text><text x="0" y="120" fill="#000000" font-size="5px" font-weight="bold" font-family="'Helvetica Neue', Helvetica, Arial-Unicode, Arial, Sans-serif">from the Noun Project</text></svg>